# xmcd
#
# Track frame offsets:
#	150
#	10737
#	19252
#	28542
#	37462
#	46202
#	56867
#	67995
#	77850
#	86660
#	95142
#	104537
#	113415
#	122870
#	131282
#	141575
#	152617
#	166290
#	176410
#	185782
#	197377
#	207080
#
# Disc length: 2889 seconds
#
# Revision: 1
# Processed by: cddbd v1.5.2PL0 Copyright (c) Steve Scherf et al.
# Submitted via: audiograbber 1.83.01
#
DISCID=330b4716
DTITLE=Various Artist - The Ebb Rhythm And Blues Masters
DYEAR=1900
DGENRE=
TTITLE0=Eddie Daniels - Mardi Gras
TTITLE1=Eddie Daniels - I Wanna Know
TTITLE2=Sammy Vance - Judge Of Court
TTITLE3=Sammy Vance - Run, Run, Run
TTITLE4=Ambers - I'll Make A Bet
TTITLE5=Ambers - Never Let Go
TTITLE6=J. J. Jones - Dandenia
TTITLE7=Hollywood Flames - Voodo Love
TTITLE8=Hollywood Flames - Bump De Bump
TTITLE9=Hollywood Flames - Two Little Bees
TTITLE10=Hollywood Flames  - It's Love
TTITLE11=Hollywood Flames - Little Bird
TTITLE12=Hollywood Flames - Give Me Back My Heart
TTITLE13=Hollywood Flames - Strollin' On The Beach
TTITLE14=Hollywood Flames - Frankenstein's Den
TTITLE15=Hollywood Flames - So Good
TTITLE16=Hollywood Flames - Something On Your Mind
TTITLE17=J.J. Jones - The Slump
TTITLE18=Ted Taylor  - Everywhere I Go
TTITLE19=Ted Taylor - Days Are Dark
TTITLE20=Ted Taylor - If I Don't See You Again
TTITLE21=Ted Taylor - Keep Walking On
EXTD=
EXTT0=
EXTT1=
EXTT2=
EXTT3=
EXTT4=
EXTT5=
EXTT6=
EXTT7=
EXTT8=
EXTT9=
EXTT10=
EXTT11=
EXTT12=
EXTT13=
EXTT14=
EXTT15=
EXTT16=
EXTT17=
EXTT18=
EXTT19=
EXTT20=
EXTT21=
PLAYORDER=
